<?xml version="1.0" encoding="UTF-8" standalone="no"?><!-- Generator: Gravit.io --><svg xmlns="http://www.w3.org/2000/svg" xmlns:xlink="http://www.w3.org/1999/xlink" style="isolation:isolate" viewBox="0 0 560 315" width="560pt" height="315pt"><defs><clipPath id="_clipPath_SHk9A2DEA5pVbjtbBHIRnXyYi4QvIG7q"><rect width="560" height="315"/></clipPath></defs><g clip-path="url(#_clipPath_SHk9A2DEA5pVbjtbBHIRnXyYi4QvIG7q)"><path d=" M 245.559 52.063 L 245.559 52.063 L 245.559 52.063 L 118.779 52.063 L 118.779 52.063 C 104.961 52.063 93.742 63.282 93.742 77.1 L 93.742 77.1 L 93.742 102.138 L 118.779 102.138 L 118.779 102.138 L 154.683 102.138 L 154.683 102.138 L 154.683 230.757 L 154.887 230.757 C 154.753 231.883 154.683 233.029 154.683 234.19 C 154.683 250.056 167.564 262.937 183.43 262.937 L 183.43 262.937 L 212.176 262.937 L 212.176 234.19 L 212.176 230.757 L 212.176 230.757 L 212.176 102.138 L 245.559 102.138 L 245.559 102.138 C 259.378 102.138 270.597 90.919 270.597 77.1 L 270.597 77.1 L 270.597 52.063 L 245.559 52.063 Z " fill-rule="evenodd" fill="rgb(217,202,176)"/><path d=" M 389.552 195.056 L 346.896 195.056 L 346.896 230.757 L 346.693 230.757 L 346.693 230.757 C 346.827 231.883 346.896 233.029 346.896 234.19 C 346.896 250.056 334.015 262.937 318.15 262.937 C 318.15 262.937 318.15 262.937 318.15 262.937 L 289.403 262.937 L 289.403 234.19 L 289.403 198.577 L 289.403 198.577 L 289.403 198.577 L 289.403 102.138 L 289.403 77.1 L 289.403 77.1 C 289.403 63.282 300.622 52.063 314.441 52.063 L 314.441 52.063 L 441.221 52.063 L 441.221 52.063 L 441.221 52.063 L 441.221 52.063 L 441.221 52.063 L 466.258 52.063 L 466.258 77.1 L 466.258 77.1 C 466.258 90.919 455.039 102.138 441.221 102.138 L 441.221 102.138 L 346.896 102.138 L 346.896 144.981 L 412.474 144.981 L 412.474 144.981 C 426.293 144.981 437.512 156.2 437.512 170.019 L 437.512 170.019 L 437.512 170.019 L 437.512 195.056 L 412.474 195.056 L 389.552 195.056 L 389.552 195.056 Z " fill-rule="evenodd" fill="rgb(217,202,176)"/></g></svg>